<?xml version="1.0" encoding="utf-8"?>
<svg xmlns="http://www.w3.org/2000/svg" fill="none" height="100%" overflow="visible" preserveAspectRatio="none" style="display: block;" viewBox="0 0 46 47" width="100%">
<g id="Vector 1 (Stroke)">
<path d="M43.9495 30.7568C44.0982 30.3355 44.5586 30.1146 44.9787 30.2636C45.3986 30.4126 45.6186 30.8746 45.4704 31.2958L44.7092 31.0271L43.9495 30.7568Z" fill="var(--fill-0, white)" style="fill:white;fill-opacity:1;"/>
<path d="M45.4704 15.6487C45.6186 16.07 45.3986 16.532 44.9787 16.681C44.5586 16.8299 44.0982 16.609 43.9495 16.1878L44.7092 15.9175L45.4704 15.6487Z" fill="var(--fill-0, white)" style="fill:white;fill-opacity:1;"/>
<path clip-rule="evenodd" d="M44.7092 31.0271L45.4704 31.2958C42.2583 40.4113 33.5913 46.9446 23.4011 46.9446C21.8382 46.9446 20.3104 46.7907 18.8321 46.4972L18.2017 46.3628C7.78037 43.9909 0 34.644 0 23.4723C0 12.3006 7.78037 2.95367 18.2017 0.581748L18.8321 0.447377C20.3104 0.153846 21.8382 0 23.4011 0C33.5913 0 42.2583 6.53323 45.4704 15.6487L44.7092 15.9175L43.9495 16.1878C40.9582 7.69884 32.8861 1.61878 23.4011 1.61878C21.9587 1.61878 20.5496 1.75878 19.1867 2.02663V44.9163C20.5497 45.1842 21.9586 45.3258 23.4011 45.3258C32.8861 45.3258 40.9582 39.2457 43.9495 30.7568L44.7092 31.0271ZM1.61387 23.4723C1.61387 13.4284 8.3698 4.96541 17.5729 2.4092V44.5338C8.37001 41.9774 1.61387 33.516 1.61387 23.4723Z" fill="var(--fill-0, white)" fill-rule="evenodd" style="fill:white;fill-opacity:1;"/>
</g>
</svg>