<?xml version="1.0" encoding="utf-8"?>
<svg xmlns="http://www.w3.org/2000/svg" fill="none" height="100%" overflow="visible" preserveAspectRatio="none" style="display: block;" viewBox="0 0 172 47" width="100%">
<g id="Vector">
<path d="M6.37801 18.467C5.3107 18.467 4.38111 18.2943 3.58924 17.949C2.79737 17.6037 2.13461 17.1202 1.60096 16.4986C1.0673 15.877 0.662762 15.1431 0.387328 14.297C0.129109 13.451 0 12.5272 0 11.5257C0 10.4897 0.137717 9.54863 0.41315 8.70255C0.688584 7.8392 1.10173 7.09672 1.6526 6.47511C2.20347 5.8535 2.88344 5.37003 3.69253 5.02469C4.50162 4.67935 5.43981 4.50668 6.50712 4.50668C7.74657 4.50668 8.83109 4.80885 9.76067 5.41319C10.7075 6.01754 11.3444 6.94132 11.6715 8.18454H9.94143C9.70042 7.42479 9.24424 6.86362 8.57287 6.50101C7.91871 6.13841 7.1957 5.9571 6.40383 5.9571C5.59474 5.9571 4.88894 6.10387 4.28643 6.39741C3.70114 6.69095 3.21052 7.09672 2.81459 7.61473C2.43586 8.11547 2.15182 8.70255 1.96246 9.37596C1.7731 10.0494 1.67842 10.766 1.67842 11.5257C1.67842 12.2682 1.7731 12.9761 1.96246 13.6495C2.15182 14.3057 2.43586 14.8841 2.81459 15.3849C3.21052 15.8856 3.70974 16.2827 4.31225 16.5763C4.93198 16.8698 5.65499 17.0166 6.48129 17.0166C7.30759 17.0166 8.04782 16.8612 8.70198 16.5504C9.35613 16.2396 9.82953 15.6611 10.1222 14.8151H11.8781C11.6887 15.4539 11.4133 16.0065 11.0518 16.4727C10.6903 16.9216 10.2599 17.3015 9.76067 17.6123C9.27866 17.9058 8.74501 18.1217 8.15972 18.2598C7.57442 18.398 6.98052 18.467 6.37801 18.467Z" fill="var(--fill-0, white)" style="fill:white;fill-opacity:1;"/>
<path d="M20.8284 17.0166C21.6547 17.0166 22.3691 16.8785 22.9716 16.6022C23.5741 16.3086 24.0647 15.9115 24.4434 15.4108C24.8394 14.91 25.1234 14.3229 25.2956 13.6495C25.4849 12.9761 25.5796 12.2595 25.5796 11.4998C25.5796 10.7401 25.4849 10.0235 25.2956 9.35006C25.1234 8.67665 24.8394 8.08957 24.4434 7.58883C24.0647 7.08809 23.5741 6.69095 22.9716 6.39741C22.3691 6.10387 21.6547 5.9571 20.8284 5.9571C20.0021 5.9571 19.2877 6.10387 18.6852 6.39741C18.0826 6.69095 17.5834 7.08809 17.1875 7.58883C16.8088 8.08957 16.5247 8.67665 16.3354 9.35006C16.1632 10.0235 16.0771 10.7401 16.0771 11.4998C16.0771 12.2595 16.1632 12.9761 16.3354 13.6495C16.5247 14.3229 16.8088 14.91 17.1875 15.4108C17.5834 15.9115 18.0826 16.3086 18.6852 16.6022C19.2877 16.8785 20.0021 17.0166 20.8284 17.0166ZM20.8284 4.50668C21.8957 4.50668 22.8253 4.67935 23.6171 5.02469C24.4262 5.37003 25.0976 5.8535 25.6312 6.47511C26.1821 7.09672 26.5953 7.8392 26.8707 8.70255C27.1461 9.54863 27.2838 10.481 27.2838 11.4998C27.2838 12.5185 27.1461 13.4596 26.8707 14.3229C26.5953 15.169 26.1821 15.9029 25.6312 16.5245C25.0976 17.1288 24.4262 17.6037 23.6171 17.949C22.8253 18.2943 21.8957 18.467 20.8284 18.467C19.7611 18.467 18.8229 18.2943 18.0138 17.949C17.2219 17.6037 16.5506 17.1288 15.9997 16.5245C15.466 15.9029 15.0615 15.169 14.7861 14.3229C14.5278 13.4596 14.3987 12.5185 14.3987 11.4998C14.3987 10.481 14.5278 9.54863 14.7861 8.70255C15.0615 7.8392 15.466 7.09672 15.9997 6.47511C16.5506 5.8535 17.2219 5.37003 18.0138 5.02469C18.8229 4.67935 19.7611 4.50668 20.8284 4.50668Z" fill="var(--fill-0, white)" style="fill:white;fill-opacity:1;"/>
<path d="M40.8801 0H42.5843V18.3116H40.8801V16.1619C40.312 16.9389 39.5976 17.5173 38.7369 17.8972C37.8761 18.2771 36.9293 18.467 35.8965 18.467C34.8291 18.467 33.9082 18.2684 33.1335 17.8713C32.3761 17.4742 31.7563 16.9389 31.2743 16.2655C30.8095 15.5921 30.4653 14.8151 30.2415 13.9344C30.0349 13.0366 29.9488 12.1041 29.9832 11.1372C30.0005 10.1875 30.1468 9.31553 30.4222 8.52125C30.7149 7.7097 31.128 7.01039 31.6617 6.42331C32.1953 5.81897 32.8409 5.35276 33.5983 5.02469C34.373 4.67935 35.2509 4.50668 36.2321 4.50668C36.6797 4.50668 37.1273 4.54984 37.5749 4.63618C38.0225 4.70525 38.4442 4.82612 38.8401 4.99879C39.2533 5.17146 39.632 5.39593 39.9763 5.6722C40.3206 5.94847 40.6219 6.28517 40.8801 6.68231V0ZM36.2063 5.9571C35.3972 5.9571 34.7086 6.11251 34.1406 6.42331C33.5725 6.71685 33.1077 7.12262 32.7462 7.64063C32.3847 8.14137 32.1179 8.71982 31.9457 9.37596C31.7736 10.0321 31.6875 10.7228 31.6875 11.448C31.6875 12.2077 31.765 12.9243 31.9199 13.5977C32.092 14.2711 32.3589 14.8582 32.7204 15.359C33.0819 15.8597 33.5467 16.2655 34.1147 16.5763C34.7 16.8698 35.4144 17.0166 36.258 17.0166C37.0154 17.0166 37.6954 16.8526 38.2979 16.5245C38.9176 16.1791 39.4254 15.7475 39.8214 15.2295C40.2173 14.7115 40.5014 14.133 40.6735 13.4941C40.8456 12.838 40.9317 12.1559 40.9317 11.448C40.9317 10.6019 40.794 9.76447 40.5186 8.93565C40.2431 8.10684 39.7525 7.42479 39.0467 6.88952C38.6508 6.59598 38.2118 6.37151 37.7298 6.21611C37.2478 6.04344 36.74 5.9571 36.2063 5.9571Z" fill="var(--fill-0, white)" style="fill:white;fill-opacity:1;"/>
<path d="M47.4719 12.0437C47.5064 12.7689 47.6269 13.4337 47.8334 14.038C48.0572 14.6424 48.3671 15.169 48.763 15.618C49.159 16.0496 49.641 16.395 50.209 16.654C50.7943 16.8957 51.4743 17.0166 52.249 17.0166C52.6105 17.0166 52.972 16.9821 53.3335 16.913C53.7122 16.8439 54.0651 16.7403 54.3922 16.6022C54.7365 16.4468 55.0463 16.2482 55.3218 16.0065C55.5972 15.7647 55.8124 15.4626 55.9673 15.1H57.749C57.5597 15.7043 57.267 16.2223 56.8711 16.654C56.4924 17.0857 56.0534 17.4396 55.5542 17.7159C55.0549 17.9749 54.5127 18.1648 53.9274 18.2857C53.3421 18.4066 52.7568 18.467 52.1715 18.467C51.1042 18.467 50.166 18.2943 49.3569 17.949C48.565 17.6037 47.9023 17.1288 47.3686 16.5245C46.835 15.9029 46.439 15.169 46.1808 14.3229C45.9226 13.4596 45.7935 12.5185 45.7935 11.4998C45.7935 10.4638 45.9312 9.5141 46.2066 8.65075C46.4821 7.7874 46.8866 7.05355 47.4203 6.44921C47.9711 5.8276 48.6425 5.35276 49.4344 5.02469C50.2435 4.67935 51.1644 4.50668 52.1973 4.50668C53.2818 4.50668 54.1942 4.72251 54.9344 5.15419C55.6919 5.58586 56.303 6.15567 56.7678 6.86362C57.2326 7.5543 57.5597 8.35721 57.749 9.27236C57.9556 10.1702 58.0417 11.094 58.0073 12.0437H47.4719ZM56.2772 10.6192C56.26 9.99757 56.1567 9.40186 55.9673 8.83205C55.7952 8.26224 55.5283 7.77013 55.1668 7.35573C54.8225 6.92405 54.3836 6.58735 53.8499 6.34561C53.3163 6.0866 52.6965 5.9571 51.9908 5.9571C51.285 5.9571 50.6566 6.0866 50.1058 6.34561C49.5721 6.60461 49.1159 6.94995 48.7372 7.38163C48.3585 7.8133 48.0658 8.31404 47.8592 8.88385C47.6527 9.4364 47.5322 10.0148 47.4977 10.6192H56.2772Z" fill="var(--fill-0, white)" style="fill:white;fill-opacity:1;"/>
<path d="M6.37801 41.1299C5.3107 41.1299 4.38111 40.9572 3.58924 40.6119C2.79737 40.2666 2.13461 39.7831 1.60096 39.1615C1.0673 38.5399 0.662762 37.806 0.387328 36.9599C0.129109 36.1139 0 35.1901 0 34.1886C0 33.1526 0.137717 32.2115 0.41315 31.3654C0.688584 30.5021 1.10173 29.7596 1.6526 29.138C2.20347 28.5164 2.88344 28.0329 3.69253 27.6876C4.50162 27.3422 5.43981 27.1696 6.50712 27.1696C7.74657 27.1696 8.83109 27.4717 9.76067 28.0761C10.7075 28.6804 11.3444 29.6042 11.6715 30.8474H9.94143C9.70042 30.0877 9.24424 29.5265 8.57287 29.1639C7.91871 28.8013 7.1957 28.62 6.40383 28.62C5.59474 28.62 4.88894 28.7668 4.28643 29.0603C3.70114 29.3538 3.21052 29.7596 2.81459 30.2776C2.43586 30.7784 2.15182 31.3654 1.96246 32.0389C1.7731 32.7123 1.67842 33.4288 1.67842 34.1886C1.67842 34.9311 1.7731 35.639 1.96246 36.3124C2.15182 36.9686 2.43586 37.547 2.81459 38.0478C3.21052 38.5485 3.70974 38.9456 4.31225 39.2392C4.93198 39.5327 5.65499 39.6795 6.48129 39.6795C7.30759 39.6795 8.04782 39.5241 8.70198 39.2133C9.35613 38.9025 9.82953 38.324 10.1222 37.4779H11.8781C11.6887 38.1168 11.4133 38.6694 11.0518 39.1356C10.6903 39.5845 10.2599 39.9644 9.76067 40.2752C9.27866 40.5687 8.74501 40.7846 8.15972 40.9227C7.57442 41.0608 6.98052 41.1299 6.37801 41.1299Z" fill="var(--fill-0, white)" style="fill:white;fill-opacity:1;"/>
<path d="M20.8284 39.6795C21.6547 39.6795 22.3691 39.5413 22.9716 39.2651C23.5741 38.9715 24.0647 38.5744 24.4434 38.0737C24.8394 37.5729 25.1234 36.9858 25.2956 36.3124C25.4849 35.639 25.5796 34.9224 25.5796 34.1627C25.5796 33.4029 25.4849 32.6864 25.2956 32.013C25.1234 31.3395 24.8394 30.7525 24.4434 30.2517C24.0647 29.751 23.5741 29.3538 22.9716 29.0603C22.3691 28.7668 21.6547 28.62 20.8284 28.62C20.0021 28.62 19.2877 28.7668 18.6852 29.0603C18.0826 29.3538 17.5834 29.751 17.1875 30.2517C16.8088 30.7525 16.5247 31.3395 16.3354 32.013C16.1632 32.6864 16.0771 33.4029 16.0771 34.1627C16.0771 34.9224 16.1632 35.639 16.3354 36.3124C16.5247 36.9858 16.8088 37.5729 17.1875 38.0737C17.5834 38.5744 18.0826 38.9715 18.6852 39.2651C19.2877 39.5413 20.0021 39.6795 20.8284 39.6795ZM20.8284 27.1696C21.8957 27.1696 22.8253 27.3422 23.6171 27.6876C24.4262 28.0329 25.0976 28.5164 25.6312 29.138C26.1821 29.7596 26.5953 30.5021 26.8707 31.3654C27.1461 32.2115 27.2838 33.1439 27.2838 34.1627C27.2838 35.1814 27.1461 36.1225 26.8707 36.9858C26.5953 37.8319 26.1821 38.5658 25.6312 39.1874C25.0976 39.7917 24.4262 40.2666 23.6171 40.6119C22.8253 40.9572 21.8957 41.1299 20.8284 41.1299C19.7611 41.1299 18.8229 40.9572 18.0138 40.6119C17.2219 40.2666 16.5506 39.7917 15.9997 39.1874C15.466 38.5658 15.0615 37.8319 14.7861 36.9858C14.5278 36.1225 14.3987 35.1814 14.3987 34.1627C14.3987 33.1439 14.5278 32.2115 14.7861 31.3654C15.0615 30.5021 15.466 29.7596 15.9997 29.138C16.5506 28.5164 17.2219 28.0329 18.0138 27.6876C18.8229 27.3422 19.7611 27.1696 20.8284 27.1696Z" fill="var(--fill-0, white)" style="fill:white;fill-opacity:1;"/>
<path d="M32.1523 29.138C32.6171 28.4473 33.2024 27.9466 33.9082 27.6358C34.6312 27.3077 35.4058 27.1523 36.2321 27.1696C37.1101 27.1696 37.8761 27.3854 38.5303 27.8171C39.1844 28.2488 39.6234 28.879 39.8472 29.7078C40.0021 29.2589 40.2259 28.8704 40.5186 28.5423C40.8284 28.2142 41.1727 27.9466 41.5514 27.7394C41.9474 27.5322 42.3605 27.3854 42.7909 27.2991C43.2385 27.1955 43.7033 27.1523 44.1853 27.1696C45.6485 27.2041 46.7158 27.653 47.3872 28.5164C48.0758 29.3625 48.4201 30.5107 48.4201 31.9611V40.9745H46.7158V33.049C46.7158 32.5482 46.69 32.0389 46.6384 31.5208C46.5867 31.0028 46.4662 30.5366 46.2769 30.1222C46.1047 29.6905 45.8293 29.3366 45.4506 29.0603C45.0718 28.784 44.564 28.6459 43.9271 28.6459C43.4106 28.6459 42.9544 28.7409 42.5585 28.9308C42.1626 29.1035 41.8183 29.3366 41.5256 29.6301C41.0608 30.1309 40.7338 30.7438 40.5444 31.469C40.3722 32.177 40.2862 32.8849 40.2862 33.5929V40.9745H38.5819V33.0749C38.5819 32.5569 38.5561 32.0389 38.5045 31.5208C38.4528 30.9856 38.3323 30.5021 38.143 30.0704C37.9536 29.6387 37.6696 29.2934 37.2908 29.0344C36.9121 28.7754 36.3957 28.6459 35.7415 28.6459C35.0874 28.6632 34.5021 28.8531 33.9856 29.2157C33.4692 29.561 33.0647 30.0186 32.772 30.5884C32.5138 31.0892 32.3502 31.6244 32.2814 32.1943C32.2125 32.7641 32.1781 33.3598 32.1781 33.9814V40.9745H30.4739V27.325H32.1006L32.1523 29.138Z" fill="var(--fill-0, white)" style="fill:white;fill-opacity:1;"/>
<path d="M53.6873 29.138C54.1521 28.4473 54.7374 27.9466 55.4432 27.6358C56.1662 27.3077 56.9409 27.1523 57.7672 27.1696C58.6451 27.1696 59.4112 27.3854 60.0653 27.8171C60.7195 28.2488 61.1585 28.879 61.3823 29.7078C61.5372 29.2589 61.761 28.8704 62.0536 28.5423C62.3635 28.2142 62.7078 27.9466 63.0865 27.7394C63.4824 27.5322 63.8956 27.3854 64.3259 27.2991C64.7735 27.1955 65.2383 27.1523 65.7203 27.1696C67.1836 27.2041 68.2509 27.653 68.9222 28.5164C69.6108 29.3625 69.9551 30.5107 69.9551 31.9611V40.9745H68.2509V33.049C68.2509 32.5482 68.225 32.0389 68.1734 31.5208C68.1218 31.0028 68.0013 30.5366 67.8119 30.1222C67.6398 29.6905 67.3643 29.3366 66.9856 29.0603C66.6069 28.784 66.0991 28.6459 65.4621 28.6459C64.9457 28.6459 64.4895 28.7409 64.0935 28.9308C63.6976 29.1035 63.3533 29.3366 63.0607 29.6301C62.5959 30.1309 62.2688 30.7438 62.0794 31.469C61.9073 32.177 61.8212 32.8849 61.8212 33.5929V40.9745H60.117V33.0749C60.117 32.5569 60.0912 32.0389 60.0395 31.5208C59.9879 30.9856 59.8674 30.5021 59.678 30.0704C59.4886 29.6387 59.2046 29.2934 58.8259 29.0344C58.4472 28.7754 57.9307 28.6459 57.2766 28.6459C56.6224 28.6632 56.0371 28.8531 55.5207 29.2157C55.0042 29.561 54.5997 30.0186 54.3071 30.5884C54.0488 31.0892 53.8853 31.6244 53.8164 32.1943C53.7476 32.7641 53.7131 33.3598 53.7131 33.9814V40.9745H52.0089V27.325H53.6357L53.6873 29.138Z" fill="var(--fill-0, white)" style="fill:white;fill-opacity:1;"/>
<path d="M74.7059 34.7066C74.7404 35.4318 74.8609 36.0966 75.0674 36.7009C75.2912 37.3053 75.6011 37.8319 75.997 38.2809C76.393 38.7125 76.875 39.0579 77.4431 39.3169C78.0284 39.5586 78.7083 39.6795 79.483 39.6795C79.8445 39.6795 80.206 39.6449 80.5675 39.5759C80.9462 39.5068 81.2991 39.4032 81.6262 39.2651C81.9705 39.1097 82.2804 38.9111 82.5558 38.6694C82.8312 38.4276 83.0464 38.1255 83.2013 37.7629H84.9831C84.7937 38.3672 84.501 38.8852 84.1051 39.3169C83.7264 39.7486 83.2874 40.1025 82.7882 40.3788C82.289 40.6378 81.7467 40.8277 81.1614 40.9486C80.5761 41.0695 79.9908 41.1299 79.4055 41.1299C78.3382 41.1299 77.4 40.9572 76.5909 40.6119C75.7991 40.2666 75.1363 39.7917 74.6027 39.1874C74.069 38.5658 73.6731 37.8319 73.4148 36.9858C73.1566 36.1225 73.0275 35.1814 73.0275 34.1627C73.0275 33.1267 73.1652 32.177 73.4407 31.3136C73.7161 30.4503 74.1206 29.7164 74.6543 29.1121C75.2052 28.4905 75.8765 28.0156 76.6684 27.6876C77.4775 27.3422 78.3985 27.1696 79.4313 27.1696C80.5159 27.1696 81.4282 27.3854 82.1685 27.8171C82.9259 28.2488 83.537 28.8186 84.0018 29.5265C84.4666 30.2172 84.7937 31.0201 84.9831 31.9353C85.1896 32.8331 85.2757 33.7569 85.2413 34.7066H74.7059ZM83.5112 33.2821C83.494 32.6605 83.3907 32.0648 83.2013 31.4949C83.0292 30.9251 82.7624 30.433 82.4009 30.0186C82.0566 29.5869 81.6176 29.2502 81.0839 29.0085C80.5503 28.7495 79.9306 28.62 79.2248 28.62C78.519 28.62 77.8906 28.7495 77.3398 29.0085C76.8061 29.2675 76.3499 29.6128 75.9712 30.0445C75.5925 30.4762 75.2998 30.9769 75.0933 31.5467C74.8867 32.0993 74.7662 32.6777 74.7318 33.2821H83.5112Z" fill="var(--fill-0, white)" style="fill:white;fill-opacity:1;"/>
<path d="M88.447 40.9745V27.325H90.0996L90.1513 29.6819C90.4611 29.1639 90.8054 28.7409 91.1841 28.4128C91.5801 28.0847 92.0104 27.8257 92.4752 27.6358C92.94 27.4458 93.4306 27.325 93.9471 27.2732C94.4635 27.2041 95.0058 27.1782 95.5739 27.1955V28.7495H95.1091C94.2828 28.7495 93.5684 28.879 92.9658 29.138C92.3633 29.3797 91.8641 29.7164 91.4682 30.1481C90.9173 30.7179 90.5558 31.3568 90.3837 32.0648C90.2287 32.7727 90.1513 33.5152 90.1513 34.2922V40.9745H88.447Z" fill="var(--fill-0, white)" style="fill:white;fill-opacity:1;"/>
<path d="M103.614 41.1299C102.546 41.1299 101.617 40.9572 100.825 40.6119C100.033 40.2666 99.3701 39.7831 98.8365 39.1615C98.3028 38.5399 97.8983 37.806 97.6229 36.9599C97.3646 36.1139 97.2355 35.1901 97.2355 34.1886C97.2355 33.1526 97.3733 32.2115 97.6487 31.3654C97.9241 30.5021 98.3373 29.7596 98.8881 29.138C99.439 28.5164 100.119 28.0329 100.928 27.6876C101.737 27.3422 102.675 27.1696 103.743 27.1696C104.982 27.1696 106.067 27.4717 106.996 28.0761C107.943 28.6804 108.58 29.6042 108.907 30.8474H107.177C106.936 30.0877 106.48 29.5265 105.808 29.1639C105.154 28.8013 104.431 28.62 103.639 28.62C102.83 28.62 102.124 28.7668 101.522 29.0603C100.937 29.3538 100.446 29.7596 100.05 30.2776C99.6714 30.7784 99.3874 31.3654 99.198 32.0389C99.0086 32.7123 98.914 33.4288 98.914 34.1886C98.914 34.9311 99.0086 35.639 99.198 36.3124C99.3874 36.9686 99.6714 37.547 100.05 38.0478C100.446 38.5485 100.945 38.9456 101.548 39.2392C102.168 39.5327 102.891 39.6795 103.717 39.6795C104.543 39.6795 105.283 39.5241 105.938 39.2133C106.592 38.9025 107.065 38.324 107.358 37.4779H109.114C108.924 38.1168 108.649 38.6694 108.287 39.1356C107.926 39.5845 107.495 39.9644 106.996 40.2752C106.514 40.5687 105.981 40.7846 105.395 40.9227C104.81 41.0608 104.216 41.1299 103.614 41.1299Z" fill="var(--fill-0, white)" style="fill:white;fill-opacity:1;"/>
<path d="M113.313 34.7066C113.347 35.4318 113.468 36.0966 113.674 36.7009C113.898 37.3053 114.208 37.8319 114.604 38.2809C115 38.7125 115.482 39.0579 116.05 39.3169C116.635 39.5586 117.315 39.6795 118.09 39.6795C118.451 39.6795 118.813 39.6449 119.174 39.5759C119.553 39.5068 119.906 39.4032 120.233 39.2651C120.577 39.1097 120.887 38.9111 121.163 38.6694C121.438 38.4276 121.653 38.1255 121.808 37.7629H123.59C123.4 38.3672 123.108 38.8852 122.712 39.3169C122.333 39.7486 121.894 40.1025 121.395 40.3788C120.896 40.6378 120.353 40.8277 119.768 40.9486C119.183 41.0695 118.598 41.1299 118.012 41.1299C116.945 41.1299 116.007 40.9572 115.198 40.6119C114.406 40.2666 113.743 39.7917 113.209 39.1874C112.676 38.5658 112.28 37.8319 112.022 36.9858C111.763 36.1225 111.634 35.1814 111.634 34.1627C111.634 33.1267 111.772 32.177 112.047 31.3136C112.323 30.4503 112.727 29.7164 113.261 29.1121C113.812 28.4905 114.483 28.0156 115.275 27.6876C116.084 27.3422 117.005 27.1696 118.038 27.1696C119.123 27.1696 120.035 27.3854 120.775 27.8171C121.533 28.2488 122.144 28.8186 122.609 29.5265C123.073 30.2172 123.4 31.0201 123.59 31.9353C123.796 32.8331 123.882 33.7569 123.848 34.7066H113.313ZM122.118 33.2821C122.101 32.6605 121.997 32.0648 121.808 31.4949C121.636 30.9251 121.369 30.433 121.008 30.0186C120.663 29.5869 120.224 29.2502 119.691 29.0085C119.157 28.7495 118.537 28.62 117.832 28.62C117.126 28.62 116.497 28.7495 115.947 29.0085C115.413 29.2675 114.957 29.6128 114.578 30.0445C114.199 30.4762 113.907 30.9769 113.7 31.5467C113.493 32.0993 113.373 32.6777 113.339 33.2821H122.118Z" fill="var(--fill-0, white)" style="fill:white;fill-opacity:1;"/>
<path d="M135.718 46.0769H134.014V27.325H135.718V29.656C136.131 29.0171 136.647 28.4991 137.267 28.102C137.818 27.7566 138.36 27.5149 138.894 27.3768C139.445 27.2386 140.047 27.1696 140.701 27.1696C141.769 27.1696 142.681 27.3681 143.439 27.7653C144.196 28.1624 144.816 28.6977 145.298 29.3711C145.78 30.0445 146.124 30.8302 146.331 31.728C146.537 32.6087 146.632 33.5324 146.615 34.4994C146.58 35.6735 146.374 36.7355 145.995 37.6851C145.633 38.6348 145.065 39.4032 144.291 39.9903C143.826 40.3529 143.266 40.6378 142.612 40.845C141.975 41.0349 141.27 41.1299 140.495 41.1299C140.047 41.1299 139.6 41.0954 139.152 41.0263C138.705 40.9745 138.274 40.8709 137.861 40.7155C137.448 40.5601 137.052 40.3443 136.673 40.068C136.312 39.7917 135.993 39.4377 135.718 39.0061V46.0769ZM140.392 39.6795C141.201 39.6795 141.889 39.5327 142.457 39.2392C143.025 38.9456 143.49 38.5485 143.852 38.0478C144.213 37.5297 144.48 36.9427 144.652 36.2865C144.824 35.6131 144.91 34.9138 144.91 34.1886C144.91 33.4461 144.824 32.7382 144.652 32.0648C144.497 31.3741 144.239 30.7784 143.878 30.2776C143.516 29.7769 143.043 29.3797 142.457 29.0862C141.889 28.7754 141.183 28.62 140.34 28.62C139.582 28.62 138.894 28.7927 138.274 29.138C137.672 29.4661 137.172 29.8977 136.776 30.433C136.381 30.9338 136.097 31.5122 135.924 32.1684C135.752 32.8072 135.666 33.4806 135.666 34.1886C135.666 35.0347 135.795 35.8808 136.053 36.7268C136.329 37.5729 136.82 38.2636 137.525 38.7989C138.317 39.3859 139.273 39.6795 140.392 39.6795Z" fill="var(--fill-0, white)" style="fill:white;fill-opacity:1;"/>
<path d="M149.85 40.9745V27.325H151.502L151.554 29.6819C151.864 29.1639 152.208 28.7409 152.587 28.4128C152.983 28.0847 153.413 27.8257 153.878 27.6358C154.343 27.4458 154.833 27.325 155.35 27.2732C155.866 27.2041 156.408 27.1782 156.976 27.1955V28.7495H156.512C155.685 28.7495 154.971 28.879 154.368 29.138C153.766 29.3797 153.267 29.7164 152.871 30.1481C152.32 30.7179 151.958 31.3568 151.786 32.0648C151.631 32.7727 151.554 33.5152 151.554 34.2922V40.9745H149.85Z" fill="var(--fill-0, white)" style="fill:white;fill-opacity:1;"/>
<path d="M165.068 39.6795C165.894 39.6795 166.609 39.5413 167.211 39.2651C167.814 38.9715 168.304 38.5744 168.683 38.0737C169.079 37.5729 169.363 36.9858 169.535 36.3124C169.724 35.639 169.819 34.9224 169.819 34.1627C169.819 33.4029 169.724 32.6864 169.535 32.013C169.363 31.3395 169.079 30.7525 168.683 30.2517C168.304 29.751 167.814 29.3538 167.211 29.0603C166.609 28.7668 165.894 28.62 165.068 28.62C164.242 28.62 163.527 28.7668 162.925 29.0603C162.322 29.3538 161.823 29.751 161.427 30.2517C161.048 30.7525 160.764 31.3395 160.575 32.013C160.403 32.6864 160.317 33.4029 160.317 34.1627C160.317 34.9224 160.403 35.639 160.575 36.3124C160.764 36.9858 161.048 37.5729 161.427 38.0737C161.823 38.5744 162.322 38.9715 162.925 39.2651C163.527 39.5413 164.242 39.6795 165.068 39.6795ZM165.068 27.1696C166.135 27.1696 167.065 27.3422 167.857 27.6876C168.666 28.0329 169.337 28.5164 169.871 29.138C170.422 29.7596 170.835 30.5021 171.11 31.3654C171.386 32.2115 171.523 33.1439 171.523 34.1627C171.523 35.1814 171.386 36.1225 171.11 36.9858C170.835 37.8319 170.422 38.5658 169.871 39.1874C169.337 39.7917 168.666 40.2666 167.857 40.6119C167.065 40.9572 166.135 41.1299 165.068 41.1299C164.001 41.1299 163.062 40.9572 162.253 40.6119C161.461 40.2666 160.79 39.7917 160.239 39.1874C159.705 38.5658 159.301 37.8319 159.025 36.9858C158.767 36.1225 158.638 35.1814 158.638 34.1627C158.638 33.1439 158.767 32.2115 159.025 31.3654C159.301 30.5021 159.705 29.7596 160.239 29.138C160.79 28.5164 161.461 28.0329 162.253 27.6876C163.062 27.3422 164.001 27.1696 165.068 27.1696Z" fill="var(--fill-0, white)" style="fill:white;fill-opacity:1;"/>
</g>
</svg>